Coordinates
version=1
nRows=12
nColumns=24
inDegrees=yes

Units are S.I. units (second, meters, Newtons, ...)
Angles are in degrees.

endheader
time	pelvis_tilt	pelvis_list	pelvis_rotation	pelvis_tx	pelvis_ty	pelvis_tz	hip_flexion_r	hip_adduction_r	hip_rotation_r	knee_angle_r	ankle_angle_r	subtalar_angle_r	mtp_angle_r	hip_flexion_l	hip_adduction_l	hip_rotation_l	knee_angle_l	ankle_angle_l	subtalar_angle_l	mtp_angle_l	lumbar_extension	lumbar_bending	lumbar_rotation
      0.70400000	     -3.89209960	      4.44457952	      8.93453554	     -0.05521713	      0.96390187	      0.24607690	     35.33414589	    -10.60188436	     -9.61569143	     -3.54687038	      8.26239361	     -7.85499609	     -1.16037320	    -17.63752841	      4.21169239	      1.37335377	     -6.38565128	     13.74714626	     -3.83163568	      0.01237880	     -9.13452470	     -3.18018785	     -5.39700050
      0.70816667	     -3.69271319	      4.36221529	      9.01003238	     -0.04879153	      0.96321754	      0.24653663	     35.05888074	    -10.49494560	     -9.46023500	     -4.18074851	      8.41687648	     -7.85206861	     -8.09512158	    -18.14068543	      3.93509724	      1.23677923	     -6.52185906	     13.65542249	     -3.45846716	     -1.04372988	     -9.31549018	     -2.97703102	     -5.41901303
      0.71233333	     -3.79157801	      4.29015962	      9.09261772	     -0.04215408	      0.96204999	      0.24688976	     35.12339649	    -10.44719900	     -9.40537582	     -4.85505249	      8.46296141	     -7.62729704	     -8.10443617	    -18.34347478	      3.73273500	      1.16588036	     -6.65361926	     13.45587040	     -3.25403902	     -1.04221960	     -9.10739736	     -2.81587828	     -5.52889959
      0.71650000	     -3.81952738	      4.24161599	      9.19612531	     -0.03558383	      0.96104460	      0.24729089	     35.07725396	    -10.40930955	     -9.33238283	     -5.47049103	      8.46876533	     -7.54112700	     -8.10154139	    -18.60161594	      3.52988302	      1.12947812	     -6.81332394	     13.22159975	     -3.04471474	     -1.02843132	     -9.01690373	     -2.68294681	     -5.58854873
      0.72066667	     -3.84187385	      4.18979062	      9.29853227	     -0.02894571	      0.96008843	      0.24770679	     34.99663257	    -10.35959487	     -9.30199351	     -6.02928359	      8.38022745	     -7.50675452	     -8.09351438	    -18.85773147	      3.32298840	      1.07768225	     -6.98654321	     12.95177476	     -2.87696009	     -1.01306206	     -8.89864554	     -2.55260067	     -5.63049689
      0.72483333	     -3.73878378	      4.01381420	      9.39170662	     -0.02217499	      0.95938171	      0.24818858	     34.71286669	    -10.15898837	     -9.35935719	     -6.44980211	      8.18731892	     -7.48924922	     -8.02751658	    -19.20821740	      2.95086125	      0.85664807	     -7.20433841	     12.76966584	     -2.47952855	     -0.90028729	     -8.92557534	     -2.25248330	     -5.75127240
      0.72900000	     -3.67749672	      3.86148333	      9.49157662	     -0.01539006	      0.95868019	      0.24866379	     34.44991912	     -9.97743138	     -9.38594257	     -6.80563504	      7.85976491	     -7.62782958	     -7.92196387	    -19.51908034	      2.61616833	      0.73794702	     -7.40590745	     12.45747745	     -2.26254962	     -0.73582161	     -8.89296637	     -1.99048836	     -5.80029392
      0.73316667	     -3.63818318	      3.70016744	      9.58572070	     -0.00857010	      0.95798351	      0.24916440	     34.19837857	     -9.78083570	     -9.43500112	     -7.11609128	      7.44786620	     -7.76854811	     -7.79045304	    -19.78525897	      2.27664013	      0.59827142	     -7.64368813	     12.12656286	     -2.03839192	     -0.54118516	     -8.83152698	     -1.72416132	     -5.85416446
      0.73733333	     -3.59931610	      3.52617822	      9.67262086	     -0.00173091	      0.95734722	      0.24969986	     33.92969761	     -9.55910000	     -9.48516924	     -7.36261562	      6.91285982	     -8.00024168	     -7.64007222	    -20.03027396	      1.92616521	      0.45333048	     -7.91050878	     11.75677971	     -1.84418392	     -0.32541008	     -8.76768053	     -1.44946968	     -5.90148055
      0.74150000	     -3.45669359	      3.32248028	      9.72572403	      0.00512789	      0.95693293	      0.25033541	     33.52861608	     -9.26471282	     -9.53534053	     -7.52252226	      6.22002047	     -8.35487060	     -7.34920140	    -20.36951943	      1.52794384	      0.22439004	     -8.18496099	     11.37309125	     -1.51429027	      0.08189424	     -8.82333391	     -1.13293183	     -5.94017698
      0.74566667	     -3.37872904	      3.09631909	      9.77649272	      0.01202238	      0.95648755	      0.25096325	     33.19004234	     -8.95164404	     -9.59005429	     -7.63568477	      5.39383087	     -8.78034265	     -6.99524679	    -20.61099356	      1.12535607	      0.00809194	     -8.50901917	     10.93899643	     -1.31201666	      0.57558560	     -8.79388389	     -0.79645202	     -5.96149781
      0.74983333	     -3.43511201	      2.87110074	      9.84132018	      0.01896654	      0.95590789	      0.25147205	     33.00842706	     -8.67781756	     -9.68947786	     -7.76301455	      4.53608960	     -9.13634886	     -6.83882151	    -20.68975351	      0.76302476	     -0.11103397	     -8.87548282	     10.43946522	     -1.33908637	      0.80095544	     -8.58634102	     -0.47496790	     -5.93614496
